<svg width="128" height="128" viewBox="0 0 128 128" fill="none" xmlns="http://www.w3.org/2000/svg">
<rect width="128" height="128" fill="#2D245B"/>
<path fill-rule="evenodd" clip-rule="evenodd" d="M42.6973 88.2803C47.7691 86.7427 56.9244 80.8554 61.4283 77.5613L67.2098 73.2694L73.1434 94.2294C74.3629 98.3113 72.3542 97.7152 72.576 102.346C75.3063 101.297 76.6044 98.5539 78.9945 97.1142C79.1029 94.6969 77.7562 89.4348 77.3573 86.6137C76.8371 82.9371 76.3796 78.7164 76.5939 74.9468L82.4644 78.6689C81.898 80.6068 79.7077 82.7429 78.5569 84.5587C78.8364 85.7251 80.9858 89.7734 82.3684 90.3501C83.4526 88.3569 82.2307 84.3748 89.6469 79.2635C88.9143 75.2706 82.9956 68.9938 83.0871 67.5659L86.4386 57.2345C86.9324 55.6292 86.929 54.9842 87.8426 54.0946C90.0418 55.8699 92.4667 60.0076 93.1292 63.7682L90.83 64.3915C91.4398 66.2498 92.1977 68.3043 93.3162 69.7248L98.2646 68.7353C99.882 59.9172 92.7801 49.0163 88.6845 45.6827C88.1429 46.1389 82.6241 56.1595 79.3636 60.2305C76.8028 63.4287 70.239 71.3152 67.2008 72.5201C66.1117 65.5218 65.2299 60.8938 65.212 53.4412C62.2225 54.4381 58.6363 60.1084 57.7376 64.3351C59.3126 64.687 58.772 64.2476 59.8328 65.3098L57.6341 70.3C55.9268 70.1369 53.6386 69.9037 52.7125 68.6577C52.7682 63.6526 54.021 59.2104 55.8746 55.3055C57.9201 50.9962 62.0942 46.1458 62.3513 45.4277L25.6114 45.3595C20.0563 55.8155 36.9203 66.8982 41.0471 74.9755C43.8556 80.4729 42.7908 82.2274 42.6973 88.2803Z" fill="white"/>
<path fill-rule="evenodd" clip-rule="evenodd" d="M81.1707 36.8902L81.1884 36.8908L82.2209 34.6776C82.2207 34.6776 82.2206 34.6776 82.2205 34.6776C82.1008 34.6679 81.9849 34.6587 81.8725 34.6499C81.7354 34.6393 81.6034 34.6294 81.4758 34.6207C80.0333 34.5226 79.1595 34.5739 77.8499 35.2939C78.36 36.4638 79.0679 36.7489 80.1298 36.8411C80.4444 36.8684 80.79 36.8788 81.1707 36.8902ZM80.1403 43.7763C80.231 44.2654 80.2928 44.599 80.1162 45.7682C79.5718 46.0139 79.0788 46.31 78.6021 46.5963C76.5998 47.799 74.8847 48.8292 70.8568 45.224C70.8848 43.7855 71.1143 42.442 71.3424 41.107C71.5198 40.0685 71.6963 39.0351 71.7764 37.9662C71.9086 36.2022 71.402 35.5435 70.8209 34.7881C70.4182 34.2646 69.9798 33.6946 69.6936 32.6779C71.5579 32.1683 73.3822 31.4213 75.2414 30.6602C75.5585 30.5303 75.8767 30.4001 76.1962 30.2705C78.9295 29.1619 79.9888 28.6969 78.9987 25.5086C82.097 25.3974 84.9781 26.3487 84.6911 29.6151C84.5415 31.3178 84.1885 31.8415 83.9507 32.1944C83.5727 32.7552 83.4855 32.8846 84.9671 36.6288C84.5939 37.5589 84.5654 37.5672 84.4116 37.6119C84.2726 37.6523 84.0312 37.7225 83.3404 38.5301L83.7208 42.2824L79.9893 42.4731C80.0183 43.1182 80.0847 43.4765 80.1403 43.7763Z" fill="white"/>
</svg>
